<?xml version="1.0" standalone="no"?>
<!DOCTYPE svg PUBLIC "-//W3C//DTD SVG 1.1//EN" "http://www.w3.org/Graphics/SVG/1.1/DTD/svg11.dtd">
<svg t="1618153970742" class="icon" viewBox="0 0 1024 1024" version="1.1"
  xmlns="http://www.w3.org/2000/svg" p-id="689"
  xmlns:xlink="http://www.w3.org/1999/xlink" width="32" height="32">
  <defs>
    <style type="text/css"></style>
  </defs>
  <path d="M993.28 464.2816L512 0 31.4368 464.2816a38.912 38.912 0 0 0 54.0672 56.0128L143.36 464.384a398.336 398.336 0 0 0 523.776 516.8128L771.2768 1024 757.76 927.3344a398.0288 398.0288 0 0 0 123.904-462.336l57.2416 55.296A38.912 38.912 0 0 0 993.28 464.2816zM512 926.9248a307.2 307.2 0 1 1 307.2-307.2 305.9712 305.9712 0 0 1-307.2 307.2z" fill="rgba(225, 225, 225, 0.25)" p-id="690"></path>
  <path d="M473.2928 479.6416m8.704 0l56.4224 0q8.704 0 8.704 8.704l0 303.9232q0 8.704-8.704 8.704l-56.4224 0q-8.704 0-8.704-8.704l0-303.9232q0-8.704 8.704-8.704Z" fill="#f9cd21" p-id="691"></path>
  <path d="M610.0992 477.4912l-54.272 17.408c-4.4032 2.1504-8.704 6.4512-6.5536 10.8544l88.9856 290.9184a12.1856 12.1856 0 0 0 10.8544 6.5536l54.272-17.408a11.8784 11.8784 0 0 0 6.5536-10.8544l-88.9856-290.9184a11.9808 11.9808 0 0 0-10.8544-6.5536zM440.32 479.6416h-56.0128a9.3184 9.3184 0 0 0-8.704 8.704v304.0256a9.216 9.216 0 0 0 8.704 8.6016H440.32a9.3184 9.3184 0 0 0 8.704-8.6016V488.3456a9.4208 9.4208 0 0 0-8.704-8.704z m-6.144 169.3696a51.2 51.2 0 0 1-17.3056 4.4032h-2.2528a51.2 51.2 0 0 1-17.3056-4.4032s-4.4032-2.1504-4.4032-10.8544a6.8608 6.8608 0 0 1 4.4032-8.704 51.2 51.2 0 0 1 17.3056-4.3008h2.2528a51.2 51.2 0 0 1 17.3056 4.3008s4.4032 2.2528 4.4032 10.8544a9.3184 9.3184 0 0 1-4.4032 8.704z m0-45.568c-4.3008 0-13.0048 2.1504-17.3056 2.1504h-2.2528a51.2 51.2 0 0 1-17.3056-4.3008s-4.4032-2.1504-4.4032-10.8544c-2.1504-4.4032 4.4032-6.5536 4.4032-6.5536a40.96 40.96 0 0 1 17.3056-4.3008h2.2528a51.2 51.2 0 0 1 17.3056 4.096s4.4032 2.1504 4.4032 10.8544a14.9504 14.9504 0 0 1-4.4032 8.9088z m0-47.8208a45.8752 45.8752 0 0 1-17.3056 2.2528h-2.2528a40.96 40.96 0 0 1-17.3056-2.2528s-4.4032-2.1504-4.4032-10.8544a6.656 6.656 0 0 1 4.4032-8.6016 49.0496 49.0496 0 0 1 17.3056-4.4032h2.2528a49.0496 49.0496 0 0 1 17.3056 4.4032s4.4032 2.1504 4.4032 10.8544a9.3184 9.3184 0 0 1-4.4032 8.6016z" fill="#f47920" p-id="692"></path>
</svg>