<svg t="1632209175585" class="icon" viewBox="0 0 1024 1024" version="1.1" xmlns="http://www.w3.org/2000/svg" p-id="2281" width="200" height="200">
  <path d="M947.2 86.016H204.8c-18.944 0-34.304 15.36-34.304 34.304v93.696H76.8c-18.944 0-34.304 15.36-34.304 34.304v528.896c0 18.944 15.36 34.304 34.304 34.304h137.728l117.248 117.76c6.656 6.144 15.36 9.728 23.552 9.728 9.216 0 17.92-3.584 24.064-9.728L496.64 812.032h322.56c18.944 0 34.304-15.36 34.304-34.304v-93.696H947.2c18.944 0 34.304-15.36 34.304-34.304V119.808c0-18.944-15.36-33.792-34.304-33.792zM505.856 802.304c2.56-2.56 4.608-5.632 6.656-8.704-1.536 3.584-4.096 6.144-6.656 8.704z m283.648-55.296H485.888c-13.824 0-22.016 6.144-27.136 11.776 0-0.512 0.512-0.512 0.512-1.024l-103.936 103.936L251.392 757.76l-7.68-10.24H106.496V278.016h683.008V747.008zM456.192 762.88c0.512-1.024 1.024-2.048 2.048-3.072-1.024 1.536-1.536 2.56-2.048 3.072z m461.312-143.872h-64V247.808c0-18.944-15.36-34.304-34.304-34.304H234.496V150.016h682.496v468.992z" fill="greenyellow" p-id="2282"></path>
  <path d="M448 565.248H205.312c-11.776 0-21.504 9.728-21.504 21.504 0 11.776 9.728 21.504 21.504 21.504h242.688c11.776 0 21.504-9.728 21.504-21.504 0-11.776-9.728-21.504-21.504-21.504zM690.688 416.256H205.312c-11.776 0-21.504 9.728-21.504 21.504 0 11.776 9.728 21.504 21.504 21.504h485.376c11.776 0 21.504-9.728 21.504-21.504 0-12.288-9.728-22.016-21.504-21.504z" fill="greenyellow" p-id="2283"></path>
</svg>